<svg xmlns="http://www.w3.org/2000/svg" xml:space="preserve" viewBox="0 0 335.1 335.1"><path d="M311.2 115.8c-1.4-10.2-1.6-27.8 7.9-33.6l.4-.4c7.8-2.5 13.1-6 9-10.7L214.2 36.8 29.6 62.4s-21.2 3-19.3 36c1 17.8 6.6 26.6 11.5 31l-15.1 4.5c-4.2 4.7 1.1 8.2 8.9 10.6l.4.4c9.5 6 9.3 23.5 8 33.6-34 9.8-22 12.9-22 12.9l7.5 1.8C4.3 198-1 207 0 224c2 32.9 19.3 35.1 19.3 35.1l120.9 39.3 182.5-44.2S335 251 301 241.3c-1.4-10.1-1.6-27.7 8-33.6l.4-.4c7.7-2.5 13-6 8.8-10.6l-7.9-2.4c5.3-3.2 13.2-11.5 14.5-33.2.9-14.9-3-23.6-7.5-28.7l15.6-3.8s12.2-3.2-21.7-12.8zm-152.7-.4 30.7-6.4L293 87.7l15.5-3.1a54 54 0 0 0-4 29.3l.7 4.7-17 4.2-130.9 32.6 1.3-40zm-131.8 32 15.5 3.1 99.6 20.5 8.7 1.8 26 5.3 1.3 40-134.5-33.4-13.3-3.3.6-4.7c.8-8 1-20.3-3.9-29.4zm-6-50.6c-.2-8.8 1.4-15.1 4.5-18.3 2-2 4.4-2.5 6-2.5l1.5.1 79.6 26 39.8 13-1.3 40.2-111.5-31.2-5.8-1.7h-.8c-.4-.1-11.5-1.1-12-25.6zm119.9 184L23.3 248l-.8-.1c-.4 0-11.4-1-12-25.6-.2-8.7 1.4-15 4.5-18.3 2-2 4.4-2.4 6-2.4h1.6l119.3 39-1.3 40.3zm153.7-41.3.6 4.7L147 280.9l1.3-40 31.6-6.5 4.6 1.1 17.5-5.6 80.6-16.6 15.5-3.2c-5 9-4.7 21.4-4 29.4zm8.1-54.4-.8.1-11.1 3.1-106.2 29.8-1.3-40.3 34.9-11.4 84.3-27.5s4.4-1 7.7 2.4c3.1 3.2 4.7 9.5 4.5 18.2-.6 24.5-11.6 25.6-12 25.6z"/></svg>
